<svg id="SvgjsSvg1012" width="288" height="288" xmlns="http://www.w3.org/2000/svg" version="1.1" xmlns:xlink="http://www.w3.org/1999/xlink" xmlns:svgjs="http://svgjs.com/svgjs"><defs id="SvgjsDefs1013"></defs><g id="SvgjsG1014"><svg xmlns="http://www.w3.org/2000/svg" fill="none" stroke-width="1.5" viewBox="0 0 24 24" width="288" height="288"><path stroke="#664847" stroke-linecap="round" stroke-linejoin="round" d="M12 16C14.2091 16 16 14.2091 16 12C16 9.79086 14.2091 8 12 8C9.79086 8 8 9.79086 8 12C8 14.2091 9.79086 16 12 16Z" class="colorStrokecurrentColor svgStroke"></path><path stroke="#664847" d="M3 16V8C3 5.23858 5.23858 3 8 3H16C18.7614 3 21 5.23858 21 8V16C21 18.7614 18.7614 21 16 21H8C5.23858 21 3 18.7614 3 16Z" class="colorStrokecurrentColor svgStroke"></path><path stroke="#664847" stroke-linecap="round" stroke-linejoin="round" d="M17.5 6.51L17.51 6.49889" class="colorStrokecurrentColor svgStroke"></path></svg></g></svg>